<svg xmlns="http://www.w3.org/2000/svg" xmlns:xlink="http://www.w3.org/1999/xlink" width="500" zoomAndPan="magnify" viewBox="0 0 375 374.999991" height="500" preserveAspectRatio="xMidYMid meet" version="1.0"><defs><clipPath id="a483b10858"><path d="M 8.554688 24.71875 L 365.554688 24.71875 L 365.554688 350.96875 L 8.554688 350.96875 Z M 8.554688 24.71875 " clip-rule="nonzero"/></clipPath></defs><g clip-path="url(#a483b10858)"><path fill="#000000" d="M 241.222656 24.6875 L 325.226562 24.6875 C 336.320312 24.6875 346.394531 29.199219 353.691406 36.503906 C 360.984375 43.789062 365.519531 53.867188 365.519531 64.933594 L 365.519531 173.789062 C 365.519531 184.871094 361.003906 194.929688 353.691406 202.21875 C 346.394531 209.503906 336.304688 214.035156 325.226562 214.035156 L 241.222656 214.035156 C 230.125 214.035156 220.050781 209.503906 212.757812 202.21875 C 205.460938 194.929688 200.925781 184.871094 200.925781 173.789062 L 200.925781 64.933594 C 200.925781 53.851562 205.460938 43.789062 212.757812 36.503906 C 220.050781 29.214844 230.125 24.6875 241.222656 24.6875 Z M 48.929688 117.246094 L 132.933594 117.246094 C 139.410156 117.246094 145.300781 114.589844 149.570312 110.328125 C 153.835938 106.046875 156.496094 100.183594 156.496094 93.714844 L 156.496094 64.933594 C 156.496094 58.464844 153.835938 52.582031 149.570312 48.320312 C 145.285156 44.039062 139.394531 41.398438 132.933594 41.398438 L 48.929688 41.398438 C 42.453125 41.398438 36.5625 44.058594 32.296875 48.320312 C 28.011719 52.597656 25.371094 58.464844 25.371094 64.933594 L 25.371094 93.714844 C 25.371094 100.183594 28.03125 106.066406 32.296875 110.328125 C 36.5625 114.589844 42.453125 117.246094 48.929688 117.246094 Z M 132.933594 133.960938 L 48.929688 133.960938 C 37.835938 133.960938 27.761719 129.429688 20.464844 122.144531 C 13.171875 114.855469 8.636719 104.777344 8.636719 93.714844 L 8.636719 64.933594 C 8.636719 53.851562 13.152344 43.789062 20.464844 36.503906 C 27.761719 29.214844 37.851562 24.6875 48.929688 24.6875 L 132.933594 24.6875 C 144.03125 24.6875 154.105469 29.214844 161.398438 36.503906 C 168.695312 43.789062 173.230469 53.867188 173.230469 64.933594 L 173.230469 93.714844 C 173.230469 104.792969 168.695312 114.855469 161.398438 122.144531 C 154.105469 129.429688 144.011719 133.960938 132.933594 133.960938 Z M 48.929688 334.1875 L 132.933594 334.1875 C 139.410156 334.1875 145.300781 331.53125 149.570312 327.269531 C 153.851562 323.007812 156.496094 317.125 156.496094 310.65625 L 156.496094 201.800781 C 156.496094 195.332031 153.851562 189.449219 149.570312 185.1875 C 145.285156 180.910156 139.410156 178.269531 132.933594 178.269531 L 48.929688 178.269531 C 42.453125 178.269531 36.5625 180.925781 32.296875 185.1875 C 28.011719 189.464844 25.371094 195.332031 25.371094 201.800781 L 25.371094 310.65625 C 25.371094 317.125 28.03125 323.007812 32.296875 327.269531 C 36.5625 331.546875 42.453125 334.1875 48.929688 334.1875 Z M 132.933594 350.902344 L 48.929688 350.902344 C 37.835938 350.902344 27.761719 346.375 20.464844 339.085938 C 13.171875 331.800781 8.636719 321.722656 8.636719 310.65625 L 8.636719 201.800781 C 8.636719 190.71875 13.152344 180.65625 20.464844 173.371094 C 27.761719 166.082031 37.851562 161.554688 48.929688 161.554688 L 132.933594 161.554688 C 144.03125 161.554688 154.105469 166.082031 161.398438 173.371094 C 168.695312 180.65625 173.230469 190.71875 173.230469 201.800781 L 173.230469 310.65625 C 173.230469 321.738281 168.695312 331.800781 161.398438 339.085938 C 154.105469 346.375 144.03125 350.902344 132.933594 350.902344 Z M 241.238281 241.628906 L 325.242188 241.628906 C 336.335938 241.628906 346.410156 246.160156 353.707031 253.445312 C 361.003906 260.734375 365.539062 270.8125 365.539062 281.875 L 365.539062 310.65625 C 365.539062 321.738281 361.003906 331.800781 353.707031 339.085938 C 346.410156 346.375 336.320312 350.902344 325.242188 350.902344 L 241.238281 350.902344 C 230.144531 350.902344 220.070312 346.375 212.773438 339.085938 C 205.476562 331.78125 200.941406 321.722656 200.941406 310.65625 L 200.941406 281.875 C 200.941406 270.792969 205.476562 260.734375 212.773438 253.445312 C 220.070312 246.160156 230.144531 241.628906 241.238281 241.628906 Z M 325.242188 258.34375 L 241.238281 258.34375 C 234.761719 258.34375 228.871094 261 224.605469 265.261719 C 220.320312 269.539062 217.675781 275.40625 217.675781 281.875 L 217.675781 310.65625 C 217.675781 317.125 220.335938 323.007812 224.605469 327.269531 C 228.886719 331.546875 234.761719 334.1875 241.238281 334.1875 L 325.242188 334.1875 C 331.71875 334.1875 337.609375 331.53125 341.875 327.269531 C 346.160156 322.992188 348.804688 317.125 348.804688 310.65625 L 348.804688 281.875 C 348.804688 275.40625 346.144531 269.523438 341.875 265.261719 C 337.59375 261 331.71875 258.34375 325.242188 258.34375 Z M 325.242188 41.398438 L 241.238281 41.398438 C 234.761719 41.398438 228.871094 44.058594 224.605469 48.320312 C 220.320312 52.582031 217.675781 58.464844 217.675781 64.933594 L 217.675781 173.789062 C 217.675781 180.257812 220.335938 186.140625 224.605469 190.402344 C 228.886719 194.679688 234.761719 197.320312 241.238281 197.320312 L 325.242188 197.320312 C 331.71875 197.320312 337.609375 194.664062 341.875 190.402344 C 346.160156 186.125 348.804688 180.257812 348.804688 173.789062 L 348.804688 64.933594 C 348.804688 58.464844 346.144531 52.582031 341.875 48.320312 C 337.59375 44.039062 331.71875 41.398438 325.242188 41.398438 Z M 325.242188 41.398438 " fill-opacity="1" fill-rule="nonzero"/></g></svg>