<svg xmlns="http://www.w3.org/2000/svg" xmlns:xlink="http://www.w3.org/1999/xlink" width="500" zoomAndPan="magnify" viewBox="0 0 375 374.999991" height="500" preserveAspectRatio="xMidYMid meet" version="1.0"><path fill="#ff0000" d="M 374.988281 187.511719 C 374.988281 291.085938 291.03125 375.011719 187.488281 375.011719 C 83.941406 375.011719 -0.0117188 291.085938 -0.0117188 187.511719 C -0.0117188 83.992188 83.941406 0.0117188 187.488281 0.0117188 C 291.03125 0.0117188 374.988281 83.992188 374.988281 187.511719 Z M 187.488281 225.3125 C 168.277344 225.3125 152.707031 240.882812 152.707031 260.089844 C 152.707031 279.296875 168.277344 294.867188 187.488281 294.867188 C 206.695312 294.867188 222.265625 279.296875 222.265625 260.089844 C 222.265625 240.882812 206.695312 225.3125 187.488281 225.3125 Z M 154.46875 100.300781 L 160.074219 203.125 C 160.339844 207.9375 164.316406 211.703125 169.136719 211.703125 L 205.839844 211.703125 C 210.65625 211.703125 214.632812 207.9375 214.898438 203.125 L 220.503906 100.300781 C 220.789062 95.105469 216.652344 90.734375 211.445312 90.734375 L 163.527344 90.734375 C 158.320312 90.734375 154.183594 95.105469 154.46875 100.300781 Z M 154.46875 100.300781 " fill-opacity="1" fill-rule="nonzero"/></svg>