<svg xmlns="http://www.w3.org/2000/svg" xmlns:xlink="http://www.w3.org/1999/xlink" width="500" zoomAndPan="magnify" viewBox="0 0 375 374.999991" height="500" preserveAspectRatio="xMidYMid meet" version="1.0"><defs><clipPath id="29f6621293"><path d="M 19.777344 23.878906 L 351.277344 23.878906 L 351.277344 355.378906 L 19.777344 355.378906 Z M 19.777344 23.878906 " clip-rule="nonzero"/></clipPath></defs><g clip-path="url(#29f6621293)"><path fill="#000000" d="M 309.839844 355.378906 C 311.195312 355.378906 312.550781 355.3125 313.898438 355.179688 C 315.25 355.046875 316.589844 354.847656 317.921875 354.582031 C 319.253906 354.316406 320.566406 353.988281 321.867188 353.59375 C 323.164062 353.199219 324.441406 352.742188 325.695312 352.222656 C 326.949219 351.703125 328.175781 351.125 329.371094 350.484375 C 330.570312 349.847656 331.730469 349.148438 332.859375 348.394531 C 333.988281 347.640625 335.078125 346.832031 336.125 345.972656 C 337.175781 345.113281 338.179688 344.203125 339.140625 343.242188 C 340.097656 342.28125 341.007812 341.277344 341.871094 340.230469 C 342.730469 339.179688 343.539062 338.089844 344.292969 336.960938 C 345.046875 335.835938 345.742188 334.671875 346.382812 333.472656 C 347.023438 332.277344 347.601562 331.050781 348.121094 329.796875 C 348.640625 328.542969 349.097656 327.269531 349.492188 325.96875 C 349.886719 324.671875 350.214844 323.355469 350.480469 322.023438 C 350.746094 320.695312 350.941406 319.351562 351.074219 318.003906 C 351.210938 316.652344 351.277344 315.296875 351.277344 313.941406 C 351.277344 312.582031 351.210938 311.230469 351.074219 309.878906 C 350.941406 308.527344 350.746094 307.1875 350.480469 305.855469 C 350.214844 304.527344 349.886719 303.210938 349.492188 301.914062 C 349.097656 300.613281 348.640625 299.335938 348.121094 298.082031 C 347.601562 296.828125 347.023438 295.605469 346.382812 294.40625 C 345.742188 293.210938 345.046875 292.046875 344.292969 290.917969 C 343.539062 289.792969 342.730469 288.703125 341.871094 287.652344 C 341.007812 286.605469 340.097656 285.601562 339.140625 284.640625 C 338.179688 283.679688 337.175781 282.769531 336.125 281.910156 C 335.078125 281.046875 333.988281 280.242188 332.859375 279.488281 C 331.730469 278.734375 330.570312 278.035156 329.371094 277.394531 C 328.175781 276.757812 326.949219 276.175781 325.695312 275.65625 C 324.441406 275.136719 323.164062 274.683594 321.867188 274.289062 C 320.566406 273.894531 319.253906 273.566406 317.921875 273.300781 C 316.589844 273.035156 315.25 272.835938 313.898438 272.703125 C 312.550781 272.570312 311.195312 272.503906 309.839844 272.503906 C 308.480469 272.503906 307.128906 272.570312 305.777344 272.703125 C 304.425781 272.835938 303.085938 273.035156 301.753906 273.300781 C 300.421875 273.566406 299.109375 273.894531 297.808594 274.289062 C 296.511719 274.683594 295.234375 275.136719 293.980469 275.65625 C 292.726562 276.175781 291.5 276.757812 290.304688 277.394531 C 289.109375 278.035156 287.945312 278.734375 286.816406 279.488281 C 285.6875 280.242188 284.597656 281.046875 283.550781 281.910156 C 282.5 282.769531 281.496094 283.679688 280.539062 284.640625 C 279.578125 285.601562 278.667969 286.605469 277.804688 287.652344 C 276.945312 288.703125 276.136719 289.792969 275.382812 290.917969 C 274.628906 292.046875 273.933594 293.210938 273.292969 294.40625 C 272.652344 295.605469 272.074219 296.828125 271.554688 298.082031 C 271.035156 299.335938 270.578125 300.613281 270.183594 301.914062 C 269.789062 303.210938 269.460938 304.527344 269.195312 305.855469 C 268.933594 307.1875 268.734375 308.527344 268.601562 309.878906 C 268.46875 311.230469 268.402344 312.582031 268.402344 313.941406 C 268.402344 315.296875 268.46875 316.652344 268.601562 318.003906 C 268.734375 319.351562 268.933594 320.695312 269.195312 322.023438 C 269.460938 323.355469 269.789062 324.671875 270.183594 325.96875 C 270.578125 327.269531 271.035156 328.542969 271.554688 329.796875 C 272.074219 331.050781 272.652344 332.277344 273.292969 333.472656 C 273.933594 334.671875 274.628906 335.835938 275.382812 336.960938 C 276.136719 338.089844 276.945312 339.179688 277.804688 340.230469 C 278.667969 341.277344 279.578125 342.28125 280.539062 343.242188 C 281.496094 344.203125 282.5 345.113281 283.550781 345.972656 C 284.597656 346.832031 285.6875 347.640625 286.816406 348.394531 C 287.945312 349.148438 289.109375 349.847656 290.304688 350.484375 C 291.5 351.125 292.726562 351.703125 293.980469 352.222656 C 295.234375 352.742188 296.511719 353.199219 297.808594 353.59375 C 299.109375 353.988281 300.421875 354.316406 301.753906 354.582031 C 303.085938 354.847656 304.425781 355.046875 305.777344 355.179688 C 307.128906 355.3125 308.480469 355.378906 309.839844 355.378906 Z M 309.839844 231.066406 C 311.195312 231.066406 312.550781 231 313.898438 230.867188 C 315.25 230.734375 316.589844 230.535156 317.921875 230.269531 C 319.253906 230.003906 320.566406 229.675781 321.867188 229.28125 C 323.164062 228.886719 324.441406 228.429688 325.695312 227.910156 C 326.949219 227.390625 328.175781 226.8125 329.371094 226.171875 C 330.570312 225.535156 331.730469 224.835938 332.859375 224.082031 C 333.988281 223.328125 335.078125 222.519531 336.125 221.660156 C 337.175781 220.800781 338.179688 219.890625 339.140625 218.929688 C 340.097656 217.96875 341.007812 216.964844 341.871094 215.917969 C 342.730469 214.867188 343.539062 213.777344 344.292969 212.648438 C 345.046875 211.523438 345.742188 210.359375 346.382812 209.160156 C 347.023438 207.964844 347.601562 206.738281 348.121094 205.484375 C 348.640625 204.230469 349.097656 202.957031 349.492188 201.65625 C 349.886719 200.359375 350.214844 199.042969 350.480469 197.710938 C 350.746094 196.382812 350.941406 195.039062 351.074219 193.691406 C 351.210938 192.339844 351.277344 190.984375 351.277344 189.628906 C 351.277344 188.269531 351.210938 186.917969 351.074219 185.566406 C 350.941406 184.214844 350.746094 182.875 350.480469 181.542969 C 350.214844 180.214844 349.886719 178.898438 349.492188 177.601562 C 349.097656 176.300781 348.640625 175.023438 348.121094 173.769531 C 347.601562 172.515625 347.023438 171.292969 346.382812 170.09375 C 345.742188 168.898438 345.046875 167.734375 344.292969 166.605469 C 343.539062 165.480469 342.730469 164.390625 341.871094 163.339844 C 341.007812 162.292969 340.097656 161.289062 339.140625 160.328125 C 338.179688 159.367188 337.175781 158.457031 336.125 157.597656 C 335.078125 156.734375 333.988281 155.929688 332.859375 155.175781 C 331.730469 154.421875 330.570312 153.722656 329.371094 153.082031 C 328.175781 152.445312 326.949219 151.863281 325.695312 151.34375 C 324.441406 150.824219 323.164062 150.371094 321.867188 149.976562 C 320.566406 149.582031 319.253906 149.253906 317.921875 148.988281 C 316.589844 148.722656 315.25 148.523438 313.898438 148.390625 C 312.550781 148.257812 311.195312 148.191406 309.839844 148.191406 C 308.480469 148.191406 307.128906 148.257812 305.777344 148.390625 C 304.425781 148.523438 303.085938 148.722656 301.753906 148.988281 C 300.421875 149.253906 299.109375 149.582031 297.808594 149.976562 C 296.511719 150.371094 295.234375 150.824219 293.980469 151.34375 C 292.726562 151.863281 291.5 152.445312 290.304688 153.082031 C 289.109375 153.722656 287.945312 154.421875 286.816406 155.175781 C 285.6875 155.929688 284.597656 156.734375 283.550781 157.597656 C 282.5 158.457031 281.496094 159.367188 280.539062 160.328125 C 279.578125 161.289062 278.667969 162.292969 277.804688 163.339844 C 276.945312 164.390625 276.136719 165.480469 275.382812 166.605469 C 274.628906 167.734375 273.933594 168.898438 273.292969 170.09375 C 272.652344 171.292969 272.074219 172.515625 271.554688 173.769531 C 271.035156 175.023438 270.578125 176.300781 270.183594 177.601562 C 269.789062 178.898438 269.460938 180.214844 269.195312 181.542969 C 268.933594 182.875 268.734375 184.214844 268.601562 185.566406 C 268.46875 186.917969 268.402344 188.269531 268.402344 189.628906 C 268.402344 190.984375 268.46875 192.339844 268.601562 193.691406 C 268.734375 195.039062 268.933594 196.382812 269.195312 197.710938 C 269.460938 199.042969 269.789062 200.359375 270.183594 201.65625 C 270.578125 202.957031 271.035156 204.230469 271.554688 205.484375 C 272.074219 206.738281 272.652344 207.964844 273.292969 209.160156 C 273.933594 210.359375 274.628906 211.523438 275.382812 212.648438 C 276.136719 213.777344 276.945312 214.867188 277.804688 215.917969 C 278.667969 216.964844 279.578125 217.96875 280.539062 218.929688 C 281.496094 219.890625 282.5 220.800781 283.550781 221.660156 C 284.597656 222.519531 285.6875 223.328125 286.816406 224.082031 C 287.945312 224.835938 289.109375 225.535156 290.304688 226.171875 C 291.5 226.8125 292.726562 227.390625 293.980469 227.910156 C 295.234375 228.429688 296.511719 228.886719 297.808594 229.28125 C 299.109375 229.675781 300.421875 230.003906 301.753906 230.269531 C 303.085938 230.535156 304.425781 230.734375 305.777344 230.867188 C 307.128906 231 308.480469 231.066406 309.839844 231.066406 Z M 309.839844 106.753906 C 311.195312 106.753906 312.550781 106.6875 313.898438 106.554688 C 315.25 106.421875 316.589844 106.222656 317.921875 105.957031 C 319.253906 105.691406 320.566406 105.363281 321.867188 104.96875 C 323.164062 104.574219 324.441406 104.117188 325.695312 103.597656 C 326.949219 103.078125 328.175781 102.5 329.371094 101.859375 C 330.570312 101.222656 331.730469 100.523438 332.859375 99.769531 C 333.988281 99.015625 335.078125 98.207031 336.125 97.347656 C 337.175781 96.488281 338.179688 95.578125 339.140625 94.617188 C 340.097656 93.65625 341.007812 92.652344 341.871094 91.605469 C 342.730469 90.554688 343.539062 89.464844 344.292969 88.335938 C 345.046875 87.210938 345.742188 86.046875 346.382812 84.847656 C 347.023438 83.652344 347.601562 82.425781 348.121094 81.171875 C 348.640625 79.917969 349.097656 78.644531 349.492188 77.34375 C 349.886719 76.046875 350.214844 74.730469 350.480469 73.398438 C 350.746094 72.070312 350.941406 70.726562 351.074219 69.378906 C 351.210938 68.027344 351.277344 66.671875 351.277344 65.316406 C 351.277344 63.957031 351.210938 62.605469 351.074219 61.253906 C 350.941406 59.902344 350.746094 58.5625 350.480469 57.230469 C 350.214844 55.902344 349.886719 54.585938 349.492188 53.289062 C 349.097656 51.988281 348.640625 50.710938 348.121094 49.457031 C 347.601562 48.203125 347.023438 46.980469 346.382812 45.78125 C 345.742188 44.585938 345.046875 43.421875 344.292969 42.292969 C 343.539062 41.167969 342.730469 40.078125 341.871094 39.027344 C 341.007812 37.980469 340.097656 36.976562 339.140625 36.015625 C 338.179688 35.054688 337.175781 34.144531 336.125 33.285156 C 335.078125 32.421875 333.988281 31.617188 332.859375 30.863281 C 331.730469 30.109375 330.570312 29.410156 329.371094 28.769531 C 328.175781 28.132812 326.949219 27.550781 325.695312 27.03125 C 324.441406 26.511719 323.164062 26.058594 321.867188 25.664062 C 320.566406 25.269531 319.253906 24.941406 317.921875 24.675781 C 316.589844 24.410156 315.25 24.210938 313.898438 24.078125 C 312.550781 23.945312 311.195312 23.878906 309.839844 23.878906 C 308.480469 23.878906 307.128906 23.945312 305.777344 24.078125 C 304.425781 24.210938 303.085938 24.410156 301.753906 24.675781 C 300.421875 24.941406 299.109375 25.269531 297.808594 25.664062 C 296.511719 26.058594 295.234375 26.511719 293.980469 27.03125 C 292.726562 27.550781 291.5 28.132812 290.304688 28.769531 C 289.109375 29.410156 287.945312 30.109375 286.816406 30.863281 C 285.6875 31.617188 284.597656 32.421875 283.550781 33.285156 C 282.5 34.144531 281.496094 35.054688 280.539062 36.015625 C 279.578125 36.976562 278.667969 37.980469 277.804688 39.027344 C 276.945312 40.078125 276.136719 41.167969 275.382812 42.292969 C 274.628906 43.421875 273.933594 44.585938 273.292969 45.78125 C 272.652344 46.980469 272.074219 48.203125 271.554688 49.457031 C 271.035156 50.710938 270.578125 51.988281 270.183594 53.289062 C 269.789062 54.585938 269.460938 55.902344 269.195312 57.230469 C 268.933594 58.5625 268.734375 59.902344 268.601562 61.253906 C 268.46875 62.605469 268.402344 63.957031 268.402344 65.316406 C 268.402344 66.671875 268.46875 68.027344 268.601562 69.378906 C 268.734375 70.726562 268.933594 72.070312 269.195312 73.398438 C 269.460938 74.730469 269.789062 76.046875 270.183594 77.34375 C 270.578125 78.644531 271.035156 79.917969 271.554688 81.171875 C 272.074219 82.425781 272.652344 83.652344 273.292969 84.847656 C 273.933594 86.046875 274.628906 87.210938 275.382812 88.335938 C 276.136719 89.464844 276.945312 90.554688 277.804688 91.605469 C 278.667969 92.652344 279.578125 93.65625 280.539062 94.617188 C 281.496094 95.578125 282.5 96.488281 283.550781 97.347656 C 284.597656 98.207031 285.6875 99.015625 286.816406 99.769531 C 287.945312 100.523438 289.109375 101.222656 290.304688 101.859375 C 291.5 102.5 292.726562 103.078125 293.980469 103.597656 C 295.234375 104.117188 296.511719 104.574219 297.808594 104.96875 C 299.109375 105.363281 300.421875 105.691406 301.753906 105.957031 C 303.085938 106.222656 304.425781 106.421875 305.777344 106.554688 C 307.128906 106.6875 308.480469 106.753906 309.839844 106.753906 Z M 185.527344 355.378906 C 186.882812 355.378906 188.238281 355.3125 189.585938 355.179688 C 190.9375 355.046875 192.277344 354.847656 193.609375 354.582031 C 194.941406 354.316406 196.253906 353.988281 197.554688 353.59375 C 198.851562 353.199219 200.128906 352.742188 201.382812 352.222656 C 202.636719 351.703125 203.863281 351.125 205.058594 350.484375 C 206.257812 349.847656 207.417969 349.148438 208.546875 348.394531 C 209.675781 347.640625 210.765625 346.832031 211.8125 345.972656 C 212.863281 345.113281 213.867188 344.203125 214.828125 343.242188 C 215.785156 342.28125 216.695312 341.277344 217.558594 340.230469 C 218.417969 339.179688 219.226562 338.089844 219.980469 336.960938 C 220.734375 335.835938 221.429688 334.671875 222.070312 333.472656 C 222.710938 332.277344 223.289062 331.050781 223.808594 329.796875 C 224.328125 328.542969 224.785156 327.269531 225.179688 325.96875 C 225.574219 324.671875 225.902344 323.355469 226.167969 322.023438 C 226.433594 320.695312 226.628906 319.351562 226.761719 318.003906 C 226.898438 316.652344 226.964844 315.296875 226.964844 313.941406 C 226.964844 312.582031 226.898438 311.230469 226.761719 309.878906 C 226.628906 308.527344 226.433594 307.1875 226.167969 305.855469 C 225.902344 304.527344 225.574219 303.210938 225.179688 301.914062 C 224.785156 300.613281 224.328125 299.335938 223.808594 298.082031 C 223.289062 296.828125 222.710938 295.605469 222.070312 294.40625 C 221.429688 293.210938 220.734375 292.046875 219.980469 290.917969 C 219.226562 289.792969 218.417969 288.703125 217.558594 287.652344 C 216.695312 286.605469 215.785156 285.601562 214.828125 284.640625 C 213.867188 283.679688 212.863281 282.769531 211.8125 281.910156 C 210.765625 281.046875 209.675781 280.242188 208.546875 279.488281 C 207.417969 278.734375 206.257812 278.035156 205.058594 277.394531 C 203.863281 276.757812 202.636719 276.175781 201.382812 275.65625 C 200.128906 275.136719 198.851562 274.683594 197.554688 274.289062 C 196.253906 273.894531 194.941406 273.566406 193.609375 273.300781 C 192.277344 273.035156 190.9375 272.835938 189.585938 272.703125 C 188.238281 272.570312 186.882812 272.503906 185.527344 272.503906 C 184.167969 272.503906 182.816406 272.570312 181.464844 272.703125 C 180.113281 272.835938 178.773438 273.035156 177.441406 273.300781 C 176.109375 273.566406 174.796875 273.894531 173.496094 274.289062 C 172.199219 274.683594 170.921875 275.136719 169.667969 275.65625 C 168.414062 276.175781 167.1875 276.757812 165.992188 277.394531 C 164.796875 278.035156 163.632812 278.734375 162.503906 279.488281 C 161.375 280.242188 160.285156 281.046875 159.238281 281.910156 C 158.1875 282.769531 157.183594 283.679688 156.226562 284.640625 C 155.265625 285.601562 154.355469 286.605469 153.492188 287.652344 C 152.632812 288.703125 151.824219 289.792969 151.070312 290.917969 C 150.316406 292.046875 149.621094 293.210938 148.980469 294.40625 C 148.339844 295.605469 147.761719 296.828125 147.242188 298.082031 C 146.722656 299.335938 146.265625 300.613281 145.871094 301.914062 C 145.480469 303.210938 145.148438 304.527344 144.882812 305.855469 C 144.621094 307.1875 144.421875 308.527344 144.289062 309.878906 C 144.15625 311.230469 144.089844 312.582031 144.089844 313.941406 C 144.089844 315.296875 144.15625 316.652344 144.289062 318.003906 C 144.421875 319.351562 144.621094 320.695312 144.882812 322.023438 C 145.148438 323.355469 145.480469 324.671875 145.871094 325.96875 C 146.265625 327.269531 146.722656 328.542969 147.242188 329.796875 C 147.761719 331.050781 148.339844 332.277344 148.980469 333.472656 C 149.621094 334.671875 150.316406 335.835938 151.070312 336.960938 C 151.824219 338.089844 152.632812 339.179688 153.492188 340.230469 C 154.355469 341.277344 155.265625 342.28125 156.226562 343.242188 C 157.183594 344.203125 158.1875 345.113281 159.238281 345.972656 C 160.285156 346.832031 161.375 347.640625 162.503906 348.394531 C 163.632812 349.148438 164.796875 349.847656 165.992188 350.484375 C 167.1875 351.125 168.414062 351.703125 169.667969 352.222656 C 170.921875 352.742188 172.199219 353.199219 173.496094 353.59375 C 174.796875 353.988281 176.109375 354.316406 177.441406 354.582031 C 178.773438 354.847656 180.113281 355.046875 181.464844 355.179688 C 182.816406 355.3125 184.167969 355.378906 185.527344 355.378906 Z M 185.527344 231.066406 C 186.882812 231.066406 188.238281 231 189.585938 230.867188 C 190.9375 230.734375 192.277344 230.535156 193.609375 230.269531 C 194.941406 230.003906 196.253906 229.675781 197.554688 229.28125 C 198.851562 228.886719 200.128906 228.429688 201.382812 227.910156 C 202.636719 227.390625 203.863281 226.8125 205.058594 226.171875 C 206.257812 225.535156 207.417969 224.835938 208.546875 224.082031 C 209.675781 223.328125 210.765625 222.519531 211.8125 221.660156 C 212.863281 220.800781 213.867188 219.890625 214.828125 218.929688 C 215.785156 217.96875 216.695312 216.964844 217.558594 215.917969 C 218.417969 214.867188 219.226562 213.777344 219.980469 212.648438 C 220.734375 211.523438 221.429688 210.359375 222.070312 209.160156 C 222.710938 207.964844 223.289062 206.738281 223.808594 205.484375 C 224.328125 204.230469 224.785156 202.957031 225.179688 201.65625 C 225.574219 200.359375 225.902344 199.042969 226.167969 197.710938 C 226.433594 196.382812 226.628906 195.039062 226.761719 193.691406 C 226.898438 192.339844 226.964844 190.984375 226.964844 189.628906 C 226.964844 188.269531 226.898438 186.917969 226.761719 185.566406 C 226.628906 184.214844 226.433594 182.875 226.167969 181.542969 C 225.902344 180.214844 225.574219 178.898438 225.179688 177.601562 C 224.785156 176.300781 224.328125 175.023438 223.808594 173.769531 C 223.289062 172.515625 222.710938 171.292969 222.070312 170.09375 C 221.429688 168.898438 220.734375 167.734375 219.980469 166.605469 C 219.226562 165.480469 218.417969 164.390625 217.558594 163.339844 C 216.695312 162.292969 215.785156 161.289062 214.828125 160.328125 C 213.867188 159.367188 212.863281 158.457031 211.8125 157.597656 C 210.765625 156.734375 209.675781 155.929688 208.546875 155.175781 C 207.417969 154.421875 206.257812 153.722656 205.058594 153.082031 C 203.863281 152.445312 202.636719 151.863281 201.382812 151.34375 C 200.128906 150.824219 198.851562 150.371094 197.554688 149.976562 C 196.253906 149.582031 194.941406 149.253906 193.609375 148.988281 C 192.277344 148.722656 190.9375 148.523438 189.585938 148.390625 C 188.238281 148.257812 186.882812 148.191406 185.527344 148.191406 C 184.167969 148.191406 182.816406 148.257812 181.464844 148.390625 C 180.113281 148.523438 178.773438 148.722656 177.441406 148.988281 C 176.109375 149.253906 174.796875 149.582031 173.496094 149.976562 C 172.199219 150.371094 170.921875 150.824219 169.667969 151.34375 C 168.414062 151.863281 167.1875 152.445312 165.992188 153.082031 C 164.796875 153.722656 163.632812 154.421875 162.503906 155.175781 C 161.375 155.929688 160.285156 156.734375 159.238281 157.597656 C 158.1875 158.457031 157.183594 159.367188 156.226562 160.328125 C 155.265625 161.289062 154.355469 162.292969 153.492188 163.339844 C 152.632812 164.390625 151.824219 165.480469 151.070312 166.605469 C 150.316406 167.734375 149.621094 168.898438 148.980469 170.09375 C 148.339844 171.292969 147.761719 172.515625 147.242188 173.769531 C 146.722656 175.023438 146.265625 176.300781 145.871094 177.601562 C 145.480469 178.898438 145.148438 180.214844 144.882812 181.542969 C 144.621094 182.875 144.421875 184.214844 144.289062 185.566406 C 144.15625 186.917969 144.089844 188.269531 144.089844 189.628906 C 144.089844 190.984375 144.15625 192.339844 144.289062 193.691406 C 144.421875 195.039062 144.621094 196.382812 144.882812 197.710938 C 145.148438 199.042969 145.480469 200.359375 145.871094 201.65625 C 146.265625 202.957031 146.722656 204.230469 147.242188 205.484375 C 147.761719 206.738281 148.339844 207.964844 148.980469 209.160156 C 149.621094 210.359375 150.316406 211.523438 151.070312 212.648438 C 151.824219 213.777344 152.632812 214.867188 153.492188 215.917969 C 154.355469 216.964844 155.265625 217.96875 156.226562 218.929688 C 157.183594 219.890625 158.1875 220.800781 159.238281 221.660156 C 160.285156 222.519531 161.375 223.328125 162.503906 224.082031 C 163.632812 224.835938 164.796875 225.535156 165.992188 226.171875 C 167.1875 226.8125 168.414062 227.390625 169.667969 227.910156 C 170.921875 228.429688 172.199219 228.886719 173.496094 229.28125 C 174.796875 229.675781 176.109375 230.003906 177.441406 230.269531 C 178.773438 230.535156 180.113281 230.734375 181.464844 230.867188 C 182.816406 231 184.167969 231.066406 185.527344 231.066406 Z M 185.527344 106.753906 C 186.882812 106.753906 188.238281 106.6875 189.585938 106.554688 C 190.9375 106.421875 192.277344 106.222656 193.609375 105.957031 C 194.941406 105.691406 196.253906 105.363281 197.554688 104.96875 C 198.851562 104.574219 200.128906 104.117188 201.382812 103.597656 C 202.636719 103.078125 203.863281 102.5 205.058594 101.859375 C 206.257812 101.222656 207.417969 100.523438 208.546875 99.769531 C 209.675781 99.015625 210.765625 98.207031 211.8125 97.347656 C 212.863281 96.488281 213.867188 95.578125 214.828125 94.617188 C 215.785156 93.65625 216.695312 92.652344 217.558594 91.605469 C 218.417969 90.554688 219.226562 89.464844 219.980469 88.335938 C 220.734375 87.210938 221.429688 86.046875 222.070312 84.847656 C 222.710938 83.652344 223.289062 82.425781 223.808594 81.171875 C 224.328125 79.917969 224.785156 78.644531 225.179688 77.34375 C 225.574219 76.046875 225.902344 74.730469 226.167969 73.398438 C 226.433594 72.070312 226.628906 70.726562 226.761719 69.378906 C 226.898438 68.027344 226.964844 66.671875 226.964844 65.316406 C 226.964844 63.957031 226.898438 62.605469 226.761719 61.253906 C 226.628906 59.902344 226.433594 58.5625 226.167969 57.230469 C 225.902344 55.902344 225.574219 54.585938 225.179688 53.289062 C 224.785156 51.988281 224.328125 50.710938 223.808594 49.457031 C 223.289062 48.203125 222.710938 46.980469 222.070312 45.78125 C 221.429688 44.585938 220.734375 43.421875 219.980469 42.292969 C 219.226562 41.167969 218.417969 40.078125 217.558594 39.027344 C 216.695312 37.980469 215.785156 36.976562 214.828125 36.015625 C 213.867188 35.054688 212.863281 34.144531 211.8125 33.285156 C 210.765625 32.421875 209.675781 31.617188 208.546875 30.863281 C 207.417969 30.109375 206.257812 29.410156 205.058594 28.769531 C 203.863281 28.132812 202.636719 27.550781 201.382812 27.03125 C 200.128906 26.511719 198.851562 26.058594 197.554688 25.664062 C 196.253906 25.269531 194.941406 24.941406 193.609375 24.675781 C 192.277344 24.410156 190.9375 24.210938 189.585938 24.078125 C 188.238281 23.945312 186.882812 23.878906 185.527344 23.878906 C 184.167969 23.878906 182.816406 23.945312 181.464844 24.078125 C 180.113281 24.210938 178.773438 24.410156 177.441406 24.675781 C 176.109375 24.941406 174.796875 25.269531 173.496094 25.664062 C 172.199219 26.058594 170.921875 26.511719 169.667969 27.03125 C 168.414062 27.550781 167.1875 28.132812 165.992188 28.769531 C 164.796875 29.410156 163.632812 30.109375 162.503906 30.863281 C 161.375 31.617188 160.285156 32.421875 159.238281 33.285156 C 158.1875 34.144531 157.183594 35.054688 156.226562 36.015625 C 155.265625 36.976562 154.355469 37.980469 153.492188 39.027344 C 152.632812 40.078125 151.824219 41.167969 151.070312 42.292969 C 150.316406 43.421875 149.621094 44.585938 148.980469 45.78125 C 148.339844 46.980469 147.761719 48.203125 147.242188 49.457031 C 146.722656 50.710938 146.265625 51.988281 145.871094 53.289062 C 145.480469 54.585938 145.148438 55.902344 144.882812 57.230469 C 144.621094 58.5625 144.421875 59.902344 144.289062 61.253906 C 144.15625 62.605469 144.089844 63.957031 144.089844 65.316406 C 144.089844 66.671875 144.15625 68.027344 144.289062 69.378906 C 144.421875 70.726562 144.621094 72.070312 144.882812 73.398438 C 145.148438 74.730469 145.480469 76.046875 145.871094 77.34375 C 146.265625 78.644531 146.722656 79.917969 147.242188 81.171875 C 147.761719 82.425781 148.339844 83.652344 148.980469 84.847656 C 149.621094 86.046875 150.316406 87.210938 151.070312 88.335938 C 151.824219 89.464844 152.632812 90.554688 153.492188 91.605469 C 154.355469 92.652344 155.265625 93.65625 156.226562 94.617188 C 157.183594 95.578125 158.1875 96.488281 159.238281 97.347656 C 160.285156 98.207031 161.375 99.015625 162.503906 99.769531 C 163.632812 100.523438 164.796875 101.222656 165.992188 101.859375 C 167.1875 102.5 168.414062 103.078125 169.667969 103.597656 C 170.921875 104.117188 172.199219 104.574219 173.496094 104.96875 C 174.796875 105.363281 176.109375 105.691406 177.441406 105.957031 C 178.773438 106.222656 180.113281 106.421875 181.464844 106.554688 C 182.816406 106.6875 184.167969 106.753906 185.527344 106.753906 Z M 61.214844 355.378906 C 62.570312 355.378906 63.925781 355.3125 65.273438 355.179688 C 66.625 355.046875 67.964844 354.847656 69.296875 354.582031 C 70.628906 354.316406 71.941406 353.988281 73.242188 353.59375 C 74.539062 353.199219 75.816406 352.742188 77.070312 352.222656 C 78.324219 351.703125 79.550781 351.125 80.746094 350.484375 C 81.945312 349.847656 83.105469 349.148438 84.234375 348.394531 C 85.363281 347.640625 86.453125 346.832031 87.5 345.972656 C 88.550781 345.113281 89.554688 344.203125 90.515625 343.242188 C 91.472656 342.28125 92.382812 341.277344 93.246094 340.230469 C 94.105469 339.179688 94.914062 338.089844 95.667969 336.960938 C 96.421875 335.835938 97.117188 334.671875 97.757812 333.472656 C 98.398438 332.277344 98.976562 331.050781 99.496094 329.796875 C 100.015625 328.542969 100.472656 327.269531 100.867188 325.96875 C 101.261719 324.671875 101.589844 323.355469 101.855469 322.023438 C 102.121094 320.695312 102.316406 319.351562 102.453125 318.003906 C 102.585938 316.652344 102.652344 315.296875 102.652344 313.941406 C 102.652344 312.582031 102.585938 311.230469 102.453125 309.878906 C 102.316406 308.527344 102.121094 307.1875 101.855469 305.855469 C 101.589844 304.527344 101.261719 303.210938 100.867188 301.914062 C 100.472656 300.613281 100.015625 299.335938 99.496094 298.082031 C 98.976562 296.828125 98.398438 295.605469 97.757812 294.40625 C 97.117188 293.210938 96.421875 292.046875 95.667969 290.917969 C 94.914062 289.792969 94.105469 288.703125 93.246094 287.652344 C 92.382812 286.605469 91.472656 285.601562 90.515625 284.640625 C 89.554688 283.679688 88.550781 282.769531 87.5 281.910156 C 86.453125 281.046875 85.363281 280.242188 84.234375 279.488281 C 83.105469 278.734375 81.945312 278.035156 80.746094 277.394531 C 79.550781 276.757812 78.324219 276.175781 77.070312 275.65625 C 75.816406 275.136719 74.539062 274.683594 73.242188 274.289062 C 71.941406 273.894531 70.628906 273.566406 69.296875 273.300781 C 67.964844 273.035156 66.625 272.835938 65.273438 272.703125 C 63.925781 272.570312 62.570312 272.503906 61.214844 272.503906 C 59.855469 272.503906 58.503906 272.570312 57.152344 272.703125 C 55.800781 272.835938 54.460938 273.035156 53.128906 273.300781 C 51.796875 273.566406 50.484375 273.894531 49.183594 274.289062 C 47.886719 274.683594 46.609375 275.136719 45.355469 275.65625 C 44.101562 276.175781 42.875 276.757812 41.679688 277.394531 C 40.484375 278.035156 39.320312 278.734375 38.191406 279.488281 C 37.0625 280.242188 35.976562 281.046875 34.925781 281.910156 C 33.875 282.769531 32.871094 283.679688 31.914062 284.640625 C 30.953125 285.601562 30.042969 286.605469 29.179688 287.652344 C 28.320312 288.703125 27.511719 289.792969 26.757812 290.917969 C 26.003906 292.046875 25.308594 293.210938 24.667969 294.40625 C 24.027344 295.605469 23.449219 296.828125 22.929688 298.082031 C 22.410156 299.335938 21.953125 300.613281 21.558594 301.914062 C 21.167969 303.210938 20.835938 304.527344 20.570312 305.855469 C 20.308594 307.1875 20.109375 308.527344 19.976562 309.878906 C 19.84375 311.230469 19.777344 312.582031 19.777344 313.941406 C 19.777344 315.296875 19.84375 316.652344 19.976562 318.003906 C 20.109375 319.351562 20.308594 320.695312 20.570312 322.023438 C 20.835938 323.355469 21.167969 324.671875 21.558594 325.96875 C 21.953125 327.269531 22.410156 328.542969 22.929688 329.796875 C 23.449219 331.050781 24.027344 332.277344 24.667969 333.472656 C 25.308594 334.671875 26.003906 335.835938 26.757812 336.960938 C 27.511719 338.089844 28.320312 339.179688 29.179688 340.230469 C 30.042969 341.277344 30.953125 342.28125 31.914062 343.242188 C 32.871094 344.203125 33.875 345.113281 34.925781 345.972656 C 35.976562 346.832031 37.0625 347.640625 38.191406 348.394531 C 39.320312 349.148438 40.484375 349.847656 41.679688 350.484375 C 42.875 351.125 44.101562 351.703125 45.355469 352.222656 C 46.609375 352.742188 47.886719 353.199219 49.183594 353.59375 C 50.484375 353.988281 51.796875 354.316406 53.128906 354.582031 C 54.460938 354.847656 55.800781 355.046875 57.152344 355.179688 C 58.503906 355.3125 59.855469 355.378906 61.214844 355.378906 Z M 61.214844 231.066406 C 62.570312 231.066406 63.925781 231 65.273438 230.867188 C 66.625 230.734375 67.964844 230.535156 69.296875 230.269531 C 70.628906 230.003906 71.941406 229.675781 73.242188 229.28125 C 74.539062 228.886719 75.816406 228.429688 77.070312 227.910156 C 78.324219 227.390625 79.550781 226.8125 80.746094 226.171875 C 81.945312 225.535156 83.105469 224.835938 84.234375 224.082031 C 85.363281 223.328125 86.453125 222.519531 87.5 221.660156 C 88.550781 220.800781 89.554688 219.890625 90.515625 218.929688 C 91.472656 217.96875 92.382812 216.964844 93.246094 215.917969 C 94.105469 214.867188 94.914062 213.777344 95.667969 212.648438 C 96.421875 211.523438 97.117188 210.359375 97.757812 209.160156 C 98.398438 207.964844 98.976562 206.738281 99.496094 205.484375 C 100.015625 204.230469 100.472656 202.957031 100.867188 201.65625 C 101.261719 200.359375 101.589844 199.042969 101.855469 197.710938 C 102.121094 196.382812 102.316406 195.039062 102.453125 193.691406 C 102.585938 192.339844 102.652344 190.984375 102.652344 189.628906 C 102.652344 188.269531 102.585938 186.917969 102.453125 185.566406 C 102.316406 184.214844 102.121094 182.875 101.855469 181.542969 C 101.589844 180.214844 101.261719 178.898438 100.867188 177.601562 C 100.472656 176.300781 100.015625 175.023438 99.496094 173.769531 C 98.976562 172.515625 98.398438 171.292969 97.757812 170.09375 C 97.117188 168.898438 96.421875 167.734375 95.667969 166.605469 C 94.914062 165.480469 94.105469 164.390625 93.246094 163.339844 C 92.382812 162.292969 91.472656 161.289062 90.515625 160.328125 C 89.554688 159.367188 88.550781 158.457031 87.5 157.597656 C 86.453125 156.734375 85.363281 155.929688 84.234375 155.175781 C 83.105469 154.421875 81.945312 153.722656 80.746094 153.082031 C 79.550781 152.445312 78.324219 151.863281 77.070312 151.34375 C 75.816406 150.824219 74.539062 150.371094 73.242188 149.976562 C 71.941406 149.582031 70.628906 149.253906 69.296875 148.988281 C 67.964844 148.722656 66.625 148.523438 65.273438 148.390625 C 63.925781 148.257812 62.570312 148.191406 61.214844 148.191406 C 59.855469 148.191406 58.503906 148.257812 57.152344 148.390625 C 55.800781 148.523438 54.460938 148.722656 53.128906 148.988281 C 51.796875 149.253906 50.484375 149.582031 49.183594 149.976562 C 47.886719 150.371094 46.609375 150.824219 45.355469 151.34375 C 44.101562 151.863281 42.875 152.445312 41.679688 153.082031 C 40.484375 153.722656 39.320312 154.421875 38.191406 155.175781 C 37.0625 155.929688 35.976562 156.734375 34.925781 157.597656 C 33.875 158.457031 32.871094 159.367188 31.914062 160.328125 C 30.953125 161.289062 30.042969 162.292969 29.179688 163.339844 C 28.320312 164.390625 27.511719 165.480469 26.757812 166.605469 C 26.003906 167.734375 25.308594 168.898438 24.667969 170.09375 C 24.027344 171.292969 23.449219 172.515625 22.929688 173.769531 C 22.410156 175.023438 21.953125 176.300781 21.558594 177.601562 C 21.167969 178.898438 20.835938 180.214844 20.570312 181.542969 C 20.308594 182.875 20.109375 184.214844 19.976562 185.566406 C 19.84375 186.917969 19.777344 188.269531 19.777344 189.628906 C 19.777344 190.984375 19.84375 192.339844 19.976562 193.691406 C 20.109375 195.039062 20.308594 196.382812 20.570312 197.710938 C 20.835938 199.042969 21.167969 200.359375 21.558594 201.65625 C 21.953125 202.957031 22.410156 204.230469 22.929688 205.484375 C 23.449219 206.738281 24.027344 207.964844 24.667969 209.160156 C 25.308594 210.359375 26.003906 211.523438 26.757812 212.648438 C 27.511719 213.777344 28.320312 214.867188 29.179688 215.917969 C 30.042969 216.964844 30.953125 217.96875 31.914062 218.929688 C 32.871094 219.890625 33.875 220.800781 34.925781 221.660156 C 35.976562 222.519531 37.0625 223.328125 38.191406 224.082031 C 39.320312 224.835938 40.484375 225.535156 41.679688 226.171875 C 42.875 226.8125 44.101562 227.390625 45.355469 227.910156 C 46.609375 228.429688 47.886719 228.886719 49.183594 229.28125 C 50.484375 229.675781 51.796875 230.003906 53.128906 230.269531 C 54.460938 230.535156 55.800781 230.734375 57.152344 230.867188 C 58.503906 231 59.855469 231.066406 61.214844 231.066406 Z M 61.214844 106.753906 C 62.570312 106.753906 63.925781 106.6875 65.273438 106.554688 C 66.625 106.421875 67.964844 106.222656 69.296875 105.957031 C 70.628906 105.691406 71.941406 105.363281 73.242188 104.96875 C 74.539062 104.574219 75.816406 104.117188 77.070312 103.597656 C 78.324219 103.078125 79.550781 102.5 80.746094 101.859375 C 81.945312 101.222656 83.105469 100.523438 84.234375 99.769531 C 85.363281 99.015625 86.453125 98.207031 87.5 97.347656 C 88.550781 96.488281 89.554688 95.578125 90.515625 94.617188 C 91.472656 93.65625 92.382812 92.652344 93.246094 91.605469 C 94.105469 90.554688 94.914062 89.464844 95.667969 88.335938 C 96.421875 87.210938 97.117188 86.046875 97.757812 84.847656 C 98.398438 83.652344 98.976562 82.425781 99.496094 81.171875 C 100.015625 79.917969 100.472656 78.644531 100.867188 77.34375 C 101.261719 76.046875 101.589844 74.730469 101.855469 73.398438 C 102.121094 72.070312 102.316406 70.726562 102.453125 69.378906 C 102.585938 68.027344 102.652344 66.671875 102.652344 65.316406 C 102.652344 63.957031 102.585938 62.605469 102.453125 61.253906 C 102.316406 59.902344 102.121094 58.5625 101.855469 57.230469 C 101.589844 55.902344 101.261719 54.585938 100.867188 53.289062 C 100.472656 51.988281 100.015625 50.710938 99.496094 49.457031 C 98.976562 48.203125 98.398438 46.980469 97.757812 45.78125 C 97.117188 44.585938 96.421875 43.421875 95.667969 42.292969 C 94.914062 41.167969 94.105469 40.078125 93.246094 39.027344 C 92.382812 37.980469 91.472656 36.976562 90.515625 36.015625 C 89.554688 35.054688 88.550781 34.144531 87.5 33.285156 C 86.453125 32.421875 85.363281 31.617188 84.234375 30.863281 C 83.105469 30.109375 81.945312 29.410156 80.746094 28.769531 C 79.550781 28.132812 78.324219 27.550781 77.070312 27.03125 C 75.816406 26.511719 74.539062 26.058594 73.242188 25.664062 C 71.941406 25.269531 70.628906 24.941406 69.296875 24.675781 C 67.964844 24.410156 66.625 24.210938 65.273438 24.078125 C 63.925781 23.945312 62.570312 23.878906 61.214844 23.878906 C 59.855469 23.878906 58.503906 23.945312 57.152344 24.078125 C 55.800781 24.210938 54.460938 24.410156 53.128906 24.675781 C 51.796875 24.941406 50.484375 25.269531 49.183594 25.664062 C 47.886719 26.058594 46.609375 26.511719 45.355469 27.03125 C 44.101562 27.550781 42.875 28.132812 41.679688 28.769531 C 40.484375 29.410156 39.320312 30.109375 38.191406 30.863281 C 37.0625 31.617188 35.976562 32.421875 34.925781 33.285156 C 33.875 34.144531 32.871094 35.054688 31.914062 36.015625 C 30.953125 36.976562 30.042969 37.980469 29.179688 39.027344 C 28.320312 40.078125 27.511719 41.167969 26.757812 42.292969 C 26.003906 43.421875 25.308594 44.585938 24.667969 45.78125 C 24.027344 46.980469 23.449219 48.203125 22.929688 49.457031 C 22.410156 50.710938 21.953125 51.988281 21.558594 53.289062 C 21.167969 54.585938 20.835938 55.902344 20.570312 57.230469 C 20.308594 58.5625 20.109375 59.902344 19.976562 61.253906 C 19.84375 62.605469 19.777344 63.957031 19.777344 65.316406 C 19.777344 66.671875 19.84375 68.027344 19.976562 69.378906 C 20.109375 70.726562 20.308594 72.070312 20.570312 73.398438 C 20.835938 74.730469 21.167969 76.046875 21.558594 77.34375 C 21.953125 78.644531 22.410156 79.917969 22.929688 81.171875 C 23.449219 82.425781 24.027344 83.652344 24.667969 84.847656 C 25.308594 86.046875 26.003906 87.210938 26.757812 88.335938 C 27.511719 89.464844 28.320312 90.554688 29.179688 91.605469 C 30.042969 92.652344 30.953125 93.65625 31.914062 94.617188 C 32.871094 95.578125 33.875 96.488281 34.925781 97.347656 C 35.976562 98.207031 37.0625 99.015625 38.191406 99.769531 C 39.320312 100.523438 40.484375 101.222656 41.679688 101.859375 C 42.875 102.5 44.101562 103.078125 45.355469 103.597656 C 46.609375 104.117188 47.886719 104.574219 49.183594 104.96875 C 50.484375 105.363281 51.796875 105.691406 53.128906 105.957031 C 54.460938 106.222656 55.800781 106.421875 57.152344 106.554688 C 58.503906 106.6875 59.855469 106.753906 61.214844 106.753906 Z M 61.214844 106.753906 " fill-opacity="1" fill-rule="evenodd"/></g></svg>