<svg xmlns="http://www.w3.org/2000/svg" xmlns:xlink="http://www.w3.org/1999/xlink" width="500" zoomAndPan="magnify" viewBox="0 0 375 374.999991" height="500" preserveAspectRatio="xMidYMid meet" version="1.0"><defs><clipPath id="c5b99d1acb"><path d="M 4 12 L 369.800781 12 L 369.800781 362 L 4 362 Z M 4 12 " clip-rule="nonzero"/></clipPath></defs><g clip-path="url(#c5b99d1acb)"><path fill="#000000" d="M 143.90625 12.167969 C 67.832031 12.167969 4.59375 67.472656 4.59375 137.027344 C 4.59375 170.421875 19.511719 200.742188 43.175781 223.121094 L 42.429688 226.78125 C 37.097656 242.425781 23.976562 251.269531 16.195312 254.09375 C 11.667969 255.707031 7.914062 258.160156 5.835938 262.441406 C 3.789062 266.695312 5.03125 272.589844 8.128906 275.664062 C 15.386719 282.957031 24.816406 282.242188 31.699219 282.304688 C 57.597656 282.617188 88.113281 269.023438 106.597656 259.773438 L 106.8125 259.679688 L 113.140625 256.019531 L 110.722656 255.273438 L 111 255.335938 C 121.296875 257.726562 132.089844 258.46875 142.695312 258.46875 C 209.589844 258.46875 267.148438 218.464844 279.863281 160.894531 L 279.863281 160.863281 C 281.570312 153.195312 282.46875 145.21875 282.46875 137.027344 C 282.46875 67.535156 219.980469 12.167969 143.90625 12.167969 Z M 143.90625 28.058594 C 212.320312 28.058594 266.589844 77.09375 266.589844 137.027344 C 266.589844 144.070312 265.816406 150.898438 264.359375 157.449219 C 253.503906 206.609375 203.292969 242.578125 142.695312 242.578125 C 132.894531 242.578125 123.25 241.835938 114.628906 239.847656 L 111.15625 238.824219 L 99.402344 245.589844 C 81.847656 254.375 51.578125 266.664062 31.886719 266.414062 C 29.1875 266.414062 28.941406 265.886719 27.046875 265.671875 C 38.335938 260.144531 51.363281 250.121094 57.566406 231.6875 L 57.6875 231.28125 L 60.542969 217.875 L 57.039062 214.773438 C 34.304688 194.878906 20.472656 167.285156 20.472656 137.027344 C 20.472656 77.15625 75.492188 28.058594 143.90625 28.058594 Z M 76.046875 83.675781 L 76.046875 99.566406 L 211.015625 99.566406 L 211.015625 83.675781 Z M 76.046875 123.402344 L 76.046875 139.292969 L 211.015625 139.292969 L 211.015625 123.402344 Z M 296.640625 156.734375 C 296.238281 159.277344 295.960938 161.824219 295.402344 164.339844 C 294.78125 167.070312 293.976562 169.738281 293.167969 172.4375 C 329.734375 186.558594 353.796875 215.019531 353.796875 246.644531 C 353.796875 269.332031 342.015625 290.53125 320.554688 306.390625 L 316.242188 309.585938 L 317.574219 314.800781 C 321.855469 331.21875 336.867188 339.691406 347.253906 345.339844 C 330.789062 347.574219 295 343.851562 277.011719 322.558594 L 274.003906 318.960938 L 269.414062 319.890625 C 262.1875 321.320312 253.8125 322.03125 243.765625 322.03125 C 194.394531 322.03125 154.292969 302.882812 138.695312 274.238281 C 132.242188 274.113281 126.226562 273.679688 120.582031 272.996094 C 135.3125 312.039062 182.671875 337.921875 243.765625 337.921875 C 252.914062 337.921875 260.882812 337.363281 268.046875 336.277344 C 285.570312 354.03125 314.132812 361.726562 337.269531 361.726562 C 338.789062 361.726562 340.308594 361.695312 341.765625 361.632812 C 355.195312 361.011719 363.941406 357.910156 367.816406 352.417969 C 369.523438 349.933594 370.113281 347.015625 369.429688 344.160156 C 368.09375 338.480469 362.886719 335.6875 355.660156 331.808594 C 348.558594 327.960938 339.222656 322.902344 334.851562 315.359375 C 357.085938 296.984375 369.675781 272.28125 369.675781 246.644531 C 369.675781 207.664062 340.554688 172.871094 296.640625 156.734375 Z M 76.046875 163.128906 L 76.046875 179.019531 L 171.320312 179.019531 L 171.320312 163.128906 Z M 274.652344 210.800781 C 270.683594 216.386719 266.3125 221.722656 261.503906 226.6875 L 298.347656 226.6875 L 298.347656 210.800781 Z M 231.578125 250.523438 C 220.628906 257.105469 208.628906 262.472656 195.882812 266.414062 L 298.347656 266.414062 L 298.347656 250.523438 Z M 231.578125 250.523438 " fill-opacity="1" fill-rule="nonzero"/></g></svg>