<svg xmlns="http://www.w3.org/2000/svg" xmlns:xlink="http://www.w3.org/1999/xlink" width="500" zoomAndPan="magnify" viewBox="0 0 375 374.999991" height="500" preserveAspectRatio="xMidYMid meet" version="1.0"><defs><clipPath id="033c1cc828"><path d="M 4.820312 57.113281 L 370 57.113281 L 370 318.113281 L 4.820312 318.113281 Z M 4.820312 57.113281 " clip-rule="nonzero"/></clipPath></defs><g clip-path="url(#033c1cc828)"><path fill="#000000" d="M 303.558594 162.714844 C 297.535156 103.492188 248.1875 57.113281 187.445312 57.113281 C 135.621094 57.113281 92.164062 90.992188 76.625 137.632812 C 35.671875 146.636719 4.960938 183.046875 4.960938 226.761719 C 4.960938 277.214844 45.8125 318.113281 96.203125 318.113281 L 291.722656 318.113281 C 334.917969 318.113281 369.929688 283.0625 369.929688 239.8125 C 369.929688 200.636719 341.097656 168.457031 303.558594 162.714844 Z M 213.515625 187.613281 L 213.515625 265.914062 L 161.378906 265.914062 L 161.378906 187.613281 L 109.238281 187.613281 L 187.445312 109.3125 L 265.652344 187.613281 Z M 213.515625 187.613281 " fill-opacity="1" fill-rule="nonzero"/></g></svg>